<svg width="3595" height="1198" viewBox="0 0 3595 1198" fill="none" xmlns="http://www.w3.org/2000/svg">
<path d="M59.2103 407.692V115.614C59.2103 93.8559 64.0062 74.3103 73.5979 56.9774C83.5585 39.2757 97.3927 25.4462 115.1 15.489C132.808 5.16299 153.836 0 178.184 0C196.63 0 212.678 3.13468 226.327 9.40404C240.346 15.3046 252.52 23.6023 262.85 34.2971L209.726 87.4022C206.037 83.7143 201.795 80.9484 196.999 79.1045C192.572 76.8918 187.223 75.7854 180.951 75.7854C169.515 75.7854 160.477 79.1045 153.836 85.7427C147.196 92.3808 143.876 101.416 143.876 112.848V407.692H59.2103ZM0 210.761V138.848H221.347V210.761H0Z" fill="white"/>
<path d="M385.446 413.777C360.729 413.777 338.779 408.799 319.596 398.842C300.781 388.516 286.025 374.502 275.326 356.8C264.628 338.73 259.279 318.078 259.279 294.844V138.848H343.944V293.738C343.944 302.957 345.42 310.886 348.371 317.524C351.691 324.163 356.487 329.326 362.758 333.013C369.03 336.701 376.593 338.545 385.446 338.545C397.989 338.545 407.95 334.673 415.328 326.928C422.707 318.815 426.396 307.752 426.396 293.738V138.848H511.061V294.291C511.061 317.893 505.712 338.73 495.013 356.8C484.315 374.502 469.558 388.516 450.744 398.842C431.929 408.799 410.164 413.777 385.446 413.777Z" fill="white"/>
<path d="M602.401 407.692V27.6589H687.066V407.692H602.401ZM541.531 210.761V138.848H747.937V210.761H541.531Z" fill="white"/>
<path d="M904.769 413.777C880.052 413.777 858.102 408.799 838.918 398.842C820.104 388.516 805.347 374.502 794.649 356.8C783.95 338.73 778.601 318.078 778.601 294.844V138.848H863.266V293.738C863.266 302.957 864.742 310.886 867.693 317.524C871.014 324.163 875.809 329.326 882.081 333.013C888.352 336.701 895.915 338.545 904.769 338.545C917.312 338.545 927.273 334.673 934.651 326.928C942.029 318.815 945.718 307.752 945.718 293.738V138.848H1030.38V294.291C1030.38 317.893 1025.03 338.73 1014.34 356.8C1003.64 374.502 988.881 388.516 970.066 398.842C951.252 408.799 929.486 413.777 904.769 413.777Z" fill="white"/>
<path d="M1083.54 407.692V138.848H1168.21V407.692H1083.54ZM1168.21 259.994L1132.79 232.335C1139.8 200.988 1151.61 176.648 1168.21 159.315C1184.81 141.982 1207.86 133.316 1237.38 133.316C1250.29 133.316 1261.54 135.344 1271.13 139.401C1281.09 143.089 1289.76 148.989 1297.14 157.103L1246.78 220.718C1243.1 216.662 1238.48 213.527 1232.95 211.314C1227.42 209.101 1221.15 207.995 1214.14 207.995C1200.12 207.995 1188.87 212.421 1180.38 221.271C1172.26 229.753 1168.21 242.661 1168.21 259.994Z" fill="white"/>
<path d="M1444.94 413.777C1415.79 413.777 1389.79 407.877 1366.91 396.076C1344.41 383.906 1326.7 367.126 1313.79 345.737C1300.88 324.347 1294.42 300.191 1294.42 273.27C1294.42 246.349 1300.69 222.378 1313.24 201.357C1326.15 179.967 1343.49 163.188 1365.25 151.018C1387.02 138.848 1411.55 132.763 1438.85 132.763C1465.41 132.763 1488.84 138.479 1509.13 149.911C1529.42 161.344 1545.28 177.201 1556.72 197.485C1568.52 217.768 1574.43 241.001 1574.43 267.185C1574.43 271.979 1574.06 277.142 1573.32 282.674C1572.95 287.837 1572.03 293.922 1570.55 300.929L1338.69 301.482V243.398L1534.58 242.845L1498.06 267.185C1497.69 251.696 1495.29 238.973 1490.87 229.016C1486.44 218.69 1479.8 210.945 1470.95 205.782C1462.46 200.251 1451.95 197.485 1439.4 197.485C1426.12 197.485 1414.5 200.619 1404.54 206.889C1394.95 212.789 1387.39 221.271 1381.85 232.335C1376.69 243.399 1374.11 256.859 1374.11 272.717C1374.11 288.575 1376.87 302.22 1382.41 313.652C1388.31 324.716 1396.43 333.382 1406.76 339.652C1417.45 345.552 1430 348.502 1444.38 348.502C1457.67 348.502 1469.65 346.29 1480.35 341.864C1491.05 337.07 1500.46 330.063 1508.58 320.843L1555.06 367.31C1541.78 382.799 1525.73 394.416 1506.92 402.161C1488.1 409.905 1467.44 413.777 1444.94 413.777Z" fill="white"/>
<path d="M1722.33 161.528V84.6363L1980.75 193.059V251.143L1722.33 359.566V283.227L1918.22 205.782V238.973L1722.33 161.528Z" fill="white"/>
<path d="M2141.64 407.692V138.848H2226.31V407.692H2141.64ZM2226.31 259.994L2190.89 232.335C2197.9 200.988 2209.7 176.648 2226.31 159.315C2242.91 141.982 2265.96 133.316 2295.48 133.316C2308.39 133.316 2319.64 135.344 2329.23 139.401C2339.19 143.089 2347.86 148.989 2355.24 157.103L2304.88 220.718C2301.19 216.662 2296.58 213.527 2291.05 211.314C2285.52 209.101 2279.24 207.995 2272.24 207.995C2258.22 207.995 2246.96 212.421 2238.48 221.271C2230.36 229.753 2226.31 242.661 2226.31 259.994Z" fill="white"/>
<path d="M2503.04 413.777C2473.89 413.777 2447.88 407.877 2425.01 396.076C2402.51 383.906 2384.8 367.126 2371.89 345.737C2358.98 324.347 2352.52 300.191 2352.52 273.27C2352.52 246.349 2358.79 222.378 2371.34 201.357C2384.25 179.967 2401.59 163.188 2423.35 151.018C2445.12 138.848 2469.65 132.763 2496.95 132.763C2523.51 132.763 2546.94 138.479 2567.23 149.911C2587.52 161.344 2603.38 177.201 2614.82 197.485C2626.62 217.768 2632.53 241.001 2632.53 267.185C2632.53 271.979 2632.16 277.142 2631.42 282.674C2631.05 287.837 2630.13 293.922 2628.65 300.929L2396.79 301.482V243.398L2592.68 242.845L2556.16 267.185C2555.79 251.696 2553.39 238.973 2548.97 229.016C2544.54 218.69 2537.9 210.945 2529.05 205.782C2520.56 200.251 2510.05 197.485 2497.5 197.485C2484.22 197.485 2472.6 200.619 2462.64 206.889C2453.05 212.789 2445.49 221.271 2439.95 232.335C2434.79 243.399 2432.21 256.859 2432.21 272.717C2432.21 288.575 2434.97 302.22 2440.51 313.652C2446.41 324.716 2454.53 333.382 2464.85 339.652C2475.55 345.552 2488.1 348.502 2502.48 348.502C2515.76 348.502 2527.75 346.29 2538.45 341.864C2549.15 337.07 2558.56 330.063 2566.67 320.843L2613.16 367.31C2599.88 382.799 2583.83 394.416 2565.01 402.161C2546.2 409.905 2525.54 413.777 2503.04 413.777Z" fill="white"/>
<path d="M2785.73 413.224C2761.01 413.224 2738.87 407.139 2719.32 394.969C2700.14 382.799 2684.83 366.204 2673.39 345.183C2662.32 324.163 2656.79 300.191 2656.79 273.27C2656.79 246.349 2662.32 222.378 2673.39 201.357C2684.83 180.336 2700.14 163.741 2719.32 151.571C2738.87 139.401 2761.01 133.316 2785.73 133.316C2803.8 133.316 2820.03 136.819 2834.42 143.826C2849.18 150.833 2861.17 160.606 2870.39 173.145C2879.61 185.315 2884.78 199.329 2885.89 215.186V331.354C2884.78 347.212 2879.61 361.41 2870.39 373.949C2861.54 386.119 2849.73 395.707 2834.98 402.714C2820.22 409.721 2803.8 413.224 2785.73 413.224ZM2802.88 336.886C2820.96 336.886 2835.53 330.985 2846.6 319.184C2857.66 307.014 2863.2 291.709 2863.2 273.27C2863.2 260.731 2860.61 249.668 2855.45 240.079C2850.65 230.491 2843.65 223.115 2834.42 217.952C2825.57 212.421 2815.24 209.655 2803.43 209.655C2791.63 209.655 2781.11 212.421 2771.89 217.952C2763.04 223.115 2755.84 230.491 2750.31 240.079C2745.15 249.668 2742.56 260.731 2742.56 273.27C2742.56 285.44 2745.15 296.319 2750.31 305.908C2755.48 315.496 2762.67 323.056 2771.89 328.588C2781.11 334.12 2791.44 336.886 2802.88 336.886ZM2859.88 407.692V335.226L2872.6 269.951L2859.88 204.676V138.848H2942.88V407.692H2859.88Z" fill="white"/>
<path d="M3117.04 413.224C3091.59 413.224 3068.9 407.139 3048.98 394.969C3029.43 382.799 3013.93 366.204 3002.49 345.183C2991.43 324.163 2985.89 300.191 2985.89 273.27C2985.89 246.349 2991.43 222.378 3002.49 201.357C3013.93 180.336 3029.43 163.741 3048.98 151.571C3068.9 139.401 3091.59 133.316 3117.04 133.316C3135.49 133.316 3152.09 136.819 3166.84 143.826C3181.97 150.833 3194.33 160.606 3203.92 173.145C3213.88 185.315 3219.41 199.329 3220.52 215.186V328.588C3219.41 344.446 3214.07 358.828 3204.47 371.736C3194.88 384.275 3182.52 394.416 3167.4 402.161C3152.27 409.536 3135.49 413.224 3117.04 413.224ZM3131.98 336.886C3144.16 336.886 3154.67 334.304 3163.52 329.141C3172.38 323.609 3179.39 316.049 3184.55 306.461C3189.72 296.872 3192.3 285.809 3192.3 273.27C3192.3 260.731 3189.72 249.852 3184.55 240.633C3179.76 231.044 3172.75 223.484 3163.52 217.952C3154.67 212.421 3144.34 209.655 3132.54 209.655C3120.73 209.655 3110.22 212.421 3100.99 217.952C3092.14 223.484 3084.95 231.044 3079.41 240.633C3074.25 250.221 3071.67 261.1 3071.67 273.27C3071.67 285.44 3074.25 296.319 3079.41 305.908C3084.58 315.496 3091.77 323.056 3100.99 328.588C3110.22 334.12 3120.55 336.886 3131.98 336.886ZM3271.98 407.692H3188.98V335.226L3201.71 269.951L3187.32 204.676V6.08497H3271.98V407.692Z" fill="white"/>
<path d="M3414.6 408.799L3303.93 138.848H3395.23L3465.51 352.928H3431.76L3503.69 138.848H3595L3479.9 408.799H3414.6ZM3345.43 521.094L3426.22 346.843L3479.9 408.799L3432.31 521.094H3345.43Z" fill="white"/>
<path d="M26.5616 831.243V754.351L284.984 862.774V920.858L26.5616 1029.28V952.942L222.454 875.497V908.688L26.5616 831.243Z" fill="white"/>
<path d="M560.419 1082.94C534.964 1082.94 512.276 1076.85 492.354 1064.68C472.802 1052.51 457.308 1035.92 445.872 1014.9C434.804 993.877 429.271 969.906 429.271 942.985C429.271 916.063 434.804 892.092 445.872 871.072C457.308 850.051 472.802 833.455 492.354 821.286C512.276 809.116 534.964 803.031 560.419 803.031C578.864 803.031 595.465 806.534 610.222 813.541C625.347 820.548 637.706 830.321 647.297 842.859C657.258 855.029 662.792 869.043 663.898 884.901V998.303C662.792 1014.16 657.442 1028.54 647.851 1041.45C638.259 1053.99 625.901 1064.13 610.775 1071.88C595.65 1079.25 578.864 1082.94 560.419 1082.94ZM575.36 1006.6C587.534 1006.6 598.048 1004.02 606.902 998.856C615.755 993.324 622.765 985.764 627.93 976.175C633.094 966.587 635.677 955.523 635.677 942.985C635.677 930.446 633.094 919.567 627.93 910.347C623.134 900.759 616.124 893.199 606.902 887.667C598.048 882.135 587.718 879.369 575.913 879.369C564.108 879.369 553.594 882.135 544.371 887.667C535.517 893.199 528.323 900.759 522.79 910.347C517.625 919.936 515.043 930.815 515.043 942.985C515.043 955.155 517.625 966.034 522.79 975.622C527.954 985.211 535.148 992.771 544.371 998.303C553.594 1003.83 563.923 1006.6 575.36 1006.6ZM715.362 1077.41H632.356V1004.94L645.084 939.666L630.696 874.391V675.8H715.362V1077.41Z" fill="white"/>
<path d="M907.782 1083.49C878.638 1083.49 852.63 1077.59 829.757 1065.79C807.254 1053.62 789.546 1036.84 776.634 1015.45C763.722 994.062 757.266 969.906 757.266 942.985C757.266 916.063 763.538 892.092 776.081 871.072C788.993 849.682 806.331 832.902 828.097 820.732C849.863 808.562 874.396 802.477 901.695 802.477C928.257 802.477 951.683 808.194 971.973 819.626C992.263 831.058 1008.13 846.916 1019.56 867.199C1031.37 887.483 1037.27 910.716 1037.27 936.9C1037.27 941.694 1036.9 946.857 1036.16 952.389C1035.79 957.552 1034.87 963.637 1033.4 970.644L801.536 971.197V913.113L997.428 912.56L960.906 936.9C960.537 921.411 958.139 908.688 953.712 898.73C949.285 888.404 942.644 880.66 933.79 875.497C925.306 869.965 914.792 867.199 902.249 867.199C888.968 867.199 877.347 870.334 867.386 876.603C857.795 882.504 850.232 890.986 844.698 902.05C839.534 913.113 836.951 926.574 836.951 942.432C836.951 958.289 839.718 971.934 845.252 983.367C851.154 994.43 859.27 1003.1 869.6 1009.37C880.298 1015.27 892.841 1018.22 907.229 1018.22C920.51 1018.22 932.499 1016 943.198 1011.58C953.896 1006.78 963.303 999.778 971.419 990.558L1017.9 1037.03C1004.62 1052.51 988.574 1064.13 969.759 1071.88C950.945 1079.62 930.286 1083.49 907.782 1083.49Z" fill="white"/>
<path d="M1176.08 1084.05C1160.22 1084.05 1144.54 1082.02 1129.05 1077.96C1113.92 1073.9 1099.72 1068.19 1086.44 1060.81C1073.53 1053.07 1062.46 1044.22 1053.24 1034.26L1101.38 985.579C1110.23 995.168 1120.75 1002.73 1132.92 1008.26C1145.09 1013.42 1158.38 1016 1172.76 1016C1182.72 1016 1190.29 1014.53 1195.45 1011.58C1200.98 1008.63 1203.75 1004.57 1203.75 999.409C1203.75 992.771 1200.43 987.792 1193.79 984.473C1187.52 980.785 1179.4 977.651 1169.44 975.069C1159.48 972.119 1148.97 968.984 1137.9 965.665C1126.83 962.346 1116.32 957.736 1106.36 951.836C1096.4 945.935 1088.28 937.822 1082.01 927.496C1075.74 916.801 1072.6 903.34 1072.6 887.114C1072.6 869.781 1077.03 854.845 1085.88 842.306C1094.74 829.399 1107.28 819.257 1123.51 811.881C1139.75 804.506 1158.74 800.818 1180.51 800.818C1203.38 800.818 1224.41 804.875 1243.59 812.988C1263.15 820.732 1279.01 832.349 1291.18 847.838L1243.04 896.518C1234.56 886.561 1224.96 879.554 1214.27 875.497C1203.94 871.44 1193.79 869.412 1183.83 869.412C1174.24 869.412 1167.05 870.887 1162.25 873.837C1157.45 876.419 1155.06 880.291 1155.06 885.454C1155.06 890.986 1158.19 895.411 1164.46 898.73C1170.73 902.05 1178.85 905 1188.81 907.581C1198.77 910.163 1209.29 913.298 1220.35 916.985C1231.42 920.673 1241.93 925.652 1251.89 931.921C1261.86 938.191 1269.97 946.673 1276.24 957.367C1282.51 967.693 1285.65 981.338 1285.65 998.303C1285.65 1024.49 1275.69 1045.32 1255.77 1060.81C1236.22 1076.3 1209.65 1084.05 1176.08 1084.05Z" fill="white"/>
<path d="M1331.58 1077.41V808.562H1416.25V1077.41H1331.58ZM1374.19 771.499C1360.91 771.499 1349.85 767.074 1340.99 758.223C1332.51 749.004 1328.26 737.94 1328.26 725.032C1328.26 711.756 1332.51 700.693 1340.99 691.842C1349.85 682.991 1360.91 678.565 1374.19 678.565C1387.47 678.565 1398.36 682.991 1406.84 691.842C1415.33 700.693 1419.57 711.756 1419.57 725.032C1419.57 737.94 1415.33 749.004 1406.84 758.223C1398.36 767.074 1387.47 771.499 1374.19 771.499Z" fill="white"/>
<path d="M1589.86 1198C1560.35 1198 1534.34 1192.84 1511.84 1182.51C1489.7 1172.55 1472.18 1158.36 1459.27 1139.92L1511.29 1087.92C1520.88 1099.35 1531.58 1108.02 1543.38 1113.92C1555.56 1119.82 1570.13 1122.77 1587.1 1122.77C1608.12 1122.77 1624.54 1117.6 1636.35 1107.28C1648.52 1096.95 1654.61 1082.39 1654.61 1063.58V994.984L1669 936.347L1656.27 877.71V808.562H1739.27V1061.36C1739.27 1089.02 1732.82 1112.99 1719.91 1133.28C1706.99 1153.56 1689.29 1169.42 1666.78 1180.85C1644.28 1192.28 1618.64 1198 1589.86 1198ZM1585.99 1069.11C1561.27 1069.11 1539.32 1063.21 1520.14 1051.41C1500.96 1039.61 1485.83 1023.56 1474.76 1003.28C1463.7 982.998 1458.16 960.502 1458.16 935.793C1458.16 910.716 1463.7 888.22 1474.76 868.306C1485.83 848.022 1500.96 832.165 1520.14 820.732C1539.32 808.931 1561.27 803.031 1585.99 803.031C1604.44 803.031 1620.85 806.534 1635.24 813.541C1650 820.179 1661.8 829.768 1670.66 842.306C1679.88 854.476 1685.04 868.674 1686.15 884.901V987.239C1685.04 1003.1 1679.88 1017.3 1670.66 1029.83C1661.8 1042 1650 1051.59 1635.24 1058.6C1620.48 1065.61 1604.07 1069.11 1585.99 1069.11ZM1602.04 993.877C1613.84 993.877 1623.99 991.296 1632.47 986.133C1641.33 980.97 1647.97 974.147 1652.39 965.665C1657.19 956.814 1659.59 946.857 1659.59 935.793C1659.59 924.73 1657.19 914.773 1652.39 905.922C1647.97 897.071 1641.33 890.064 1632.47 884.901C1623.99 879.738 1613.84 877.157 1602.04 877.157C1590.6 877.157 1580.46 879.738 1571.6 884.901C1562.75 890.064 1555.92 897.071 1551.13 905.922C1546.33 914.773 1543.93 924.73 1543.93 935.793C1543.93 946.119 1546.33 955.892 1551.13 965.112C1555.92 973.963 1562.56 980.97 1571.05 986.133C1579.9 991.296 1590.23 993.877 1602.04 993.877Z" fill="white"/>
<path d="M1976.66 1077.41V924.177C1976.66 910.163 1972.23 898.915 1963.38 890.433C1954.89 881.582 1944.01 877.157 1930.73 877.157C1921.51 877.157 1913.39 879.185 1906.38 883.242C1899.37 886.929 1893.84 892.461 1889.78 899.837C1885.72 906.844 1883.69 914.957 1883.69 924.177L1851.04 908.135C1851.04 887.114 1855.66 868.674 1864.88 852.817C1874.1 836.959 1886.83 824.789 1903.06 816.307C1919.66 807.456 1938.29 803.031 1958.95 803.031C1978.87 803.031 1996.4 807.825 2011.52 817.413C2027.02 826.633 2039.19 838.987 2048.04 854.476C2056.9 869.965 2061.32 886.929 2061.32 905.369V1077.41H1976.66ZM1799.03 1077.41V808.562H1883.69V1077.41H1799.03Z" fill="white"/>
</svg>
